ISO-10303-21;
HEADER;
/* Generated by software containing ST-Developer
 * from STEP Tools, Inc. (www.steptools.com) 
 */

FILE_DESCRIPTION(
/* description */ (''),
/* implementation_level */ '2;1');

FILE_NAME(
/* name */ 'rotary_engrave_coin_holder_parameterized.step',
/* time_stamp */ '2026-05-04T09:59:06-04:00',
/* author */ (''),
/* organization */ (''),
/* preprocessor_version */ 'ST-DEVELOPER v20.1',
/* originating_system */ 'Autodesk Translation Framework v15.8.0.0',
/* authorisation */ '');

FILE_SCHEMA (('AUTOMOTIVE_DESIGN { 1 0 10303 214 3 1 1 }'));
ENDSEC;

DATA;
#10=MECHANICAL_DESIGN_GEOMETRIC_PRESENTATION_REPRESENTATION('',(#13,#14),
#358);
#11=SHAPE_REPRESENTATION_RELATIONSHIP('SRR','None',#365,#12);
#12=ADVANCED_BREP_SHAPE_REPRESENTATION('',(#15,#16),#357);
#13=STYLED_ITEM('',(#374),#15);
#14=STYLED_ITEM('',(#374),#16);
#15=MANIFOLD_SOLID_BREP('Body1',#188);
#16=MANIFOLD_SOLID_BREP('Body4',#189);
#17=FACE_BOUND('',#67,.T.);
#18=FACE_BOUND('',#71,.T.);
#19=PLANE('',#219);
#20=PLANE('',#220);
#21=PLANE('',#221);
#22=PLANE('',#228);
#23=PLANE('',#232);
#24=PLANE('',#233);
#25=CYLINDRICAL_SURFACE('',#209,15.);
#26=CYLINDRICAL_SURFACE('',#214,22.);
#27=CYLINDRICAL_SURFACE('',#216,12.775);
#28=CYLINDRICAL_SURFACE('',#226,22.);
#29=CYLINDRICAL_SURFACE('',#230,12.775);
#30=LINE('',#313,#36);
#31=LINE('',#317,#37);
#32=LINE('',#326,#38);
#33=LINE('',#331,#39);
#34=LINE('',#344,#40);
#35=LINE('',#352,#41);
#36=VECTOR('',#246,22.);
#37=VECTOR('',#251,15.);
#38=VECTOR('',#264,22.);
#39=VECTOR('',#269,12.775);
#40=VECTOR('',#288,22.);
#41=VECTOR('',#299,12.775);
#42=CONICAL_SURFACE('',#207,22.,1.0471975511966);
#43=FACE_OUTER_BOUND('',#58,.T.);
#44=FACE_OUTER_BOUND('',#59,.T.);
#45=FACE_OUTER_BOUND('',#60,.T.);
#46=FACE_OUTER_BOUND('',#61,.T.);
#47=FACE_OUTER_BOUND('',#62,.T.);
#48=FACE_OUTER_BOUND('',#63,.T.);
#49=FACE_OUTER_BOUND('',#64,.T.);
#50=FACE_OUTER_BOUND('',#65,.T.);
#51=FACE_OUTER_BOUND('',#66,.T.);
#52=FACE_OUTER_BOUND('',#68,.T.);
#53=FACE_OUTER_BOUND('',#69,.T.);
#54=FACE_OUTER_BOUND('',#70,.T.);
#55=FACE_OUTER_BOUND('',#72,.T.);
#56=FACE_OUTER_BOUND('',#73,.T.);
#57=FACE_OUTER_BOUND('',#74,.T.);
#58=EDGE_LOOP('',(#126,#127,#128,#129));
#59=EDGE_LOOP('',(#130,#131,#132,#133));
#60=EDGE_LOOP('',(#134,#135,#136,#137));
#61=EDGE_LOOP('',(#138,#139,#140,#141));
#62=EDGE_LOOP('',(#142,#143,#144,#145));
#63=EDGE_LOOP('',(#146,#147,#148,#149));
#64=EDGE_LOOP('',(#150));
#65=EDGE_LOOP('',(#151));
#66=EDGE_LOOP('',(#152));
#67=EDGE_LOOP('',(#153));
#68=EDGE_LOOP('',(#154,#155,#156,#157));
#69=EDGE_LOOP('',(#158,#159,#160,#161));
#70=EDGE_LOOP('',(#162));
#71=EDGE_LOOP('',(#163));
#72=EDGE_LOOP('',(#164,#165,#166,#167));
#73=EDGE_LOOP('',(#168));
#74=EDGE_LOOP('',(#169));
#75=CIRCLE('',#204,15.);
#76=CIRCLE('',#205,3.);
#77=CIRCLE('',#206,16.5);
#78=CIRCLE('',#208,20.5);
#79=CIRCLE('',#210,15.);
#80=CIRCLE('',#212,22.);
#81=CIRCLE('',#213,3.);
#82=CIRCLE('',#215,22.);
#83=CIRCLE('',#217,12.775);
#84=CIRCLE('',#218,12.775);
#85=CIRCLE('',#223,19.);
#86=CIRCLE('',#224,3.);
#87=CIRCLE('',#225,22.);
#88=CIRCLE('',#227,22.);
#89=CIRCLE('',#229,12.775);
#90=CIRCLE('',#231,12.775);
#91=VERTEX_POINT('',#306);
#92=VERTEX_POINT('',#308);
#93=VERTEX_POINT('',#312);
#94=VERTEX_POINT('',#316);
#95=VERTEX_POINT('',#320);
#96=VERTEX_POINT('',#324);
#97=VERTEX_POINT('',#328);
#98=VERTEX_POINT('',#330);
#99=VERTEX_POINT('',#337);
#100=VERTEX_POINT('',#339);
#101=VERTEX_POINT('',#343);
#102=VERTEX_POINT('',#347);
#103=VERTEX_POINT('',#350);
#104=EDGE_CURVE('',#91,#91,#75,.T.);
#105=EDGE_CURVE('',#91,#92,#76,.T.);
#106=EDGE_CURVE('',#92,#92,#77,.T.);
#107=EDGE_CURVE('',#92,#93,#30,.T.);
#108=EDGE_CURVE('',#93,#93,#78,.T.);
#109=EDGE_CURVE('',#91,#94,#31,.T.);
#110=EDGE_CURVE('',#94,#94,#79,.T.);
#111=EDGE_CURVE('',#95,#95,#80,.T.);
#112=EDGE_CURVE('',#95,#93,#81,.T.);
#113=EDGE_CURVE('',#96,#96,#82,.T.);
#114=EDGE_CURVE('',#96,#95,#32,.T.);
#115=EDGE_CURVE('',#97,#97,#83,.T.);
#116=EDGE_CURVE('',#97,#98,#33,.T.);
#117=EDGE_CURVE('',#98,#98,#84,.T.);
#118=EDGE_CURVE('',#99,#99,#85,.T.);
#119=EDGE_CURVE('',#99,#100,#86,.T.);
#120=EDGE_CURVE('',#100,#100,#87,.T.);
#121=EDGE_CURVE('',#100,#101,#34,.T.);
#122=EDGE_CURVE('',#101,#101,#88,.T.);
#123=EDGE_CURVE('',#102,#102,#89,.T.);
#124=EDGE_CURVE('',#103,#103,#90,.T.);
#125=EDGE_CURVE('',#103,#102,#35,.T.);
#126=ORIENTED_EDGE('',*,*,#104,.T.);
#127=ORIENTED_EDGE('',*,*,#105,.T.);
#128=ORIENTED_EDGE('',*,*,#106,.T.);
#129=ORIENTED_EDGE('',*,*,#105,.F.);
#130=ORIENTED_EDGE('',*,*,#106,.F.);
#131=ORIENTED_EDGE('',*,*,#107,.T.);
#132=ORIENTED_EDGE('',*,*,#108,.F.);
#133=ORIENTED_EDGE('',*,*,#107,.F.);
#134=ORIENTED_EDGE('',*,*,#104,.F.);
#135=ORIENTED_EDGE('',*,*,#109,.T.);
#136=ORIENTED_EDGE('',*,*,#110,.T.);
#137=ORIENTED_EDGE('',*,*,#109,.F.);
#138=ORIENTED_EDGE('',*,*,#111,.T.);
#139=ORIENTED_EDGE('',*,*,#112,.T.);
#140=ORIENTED_EDGE('',*,*,#108,.T.);
#141=ORIENTED_EDGE('',*,*,#112,.F.);
#142=ORIENTED_EDGE('',*,*,#113,.F.);
#143=ORIENTED_EDGE('',*,*,#114,.T.);
#144=ORIENTED_EDGE('',*,*,#111,.F.);
#145=ORIENTED_EDGE('',*,*,#114,.F.);
#146=ORIENTED_EDGE('',*,*,#115,.T.);
#147=ORIENTED_EDGE('',*,*,#116,.T.);
#148=ORIENTED_EDGE('',*,*,#117,.F.);
#149=ORIENTED_EDGE('',*,*,#116,.F.);
#150=ORIENTED_EDGE('',*,*,#115,.F.);
#151=ORIENTED_EDGE('',*,*,#113,.T.);
#152=ORIENTED_EDGE('',*,*,#110,.F.);
#153=ORIENTED_EDGE('',*,*,#117,.T.);
#154=ORIENTED_EDGE('',*,*,#118,.T.);
#155=ORIENTED_EDGE('',*,*,#119,.T.);
#156=ORIENTED_EDGE('',*,*,#120,.T.);
#157=ORIENTED_EDGE('',*,*,#119,.F.);
#158=ORIENTED_EDGE('',*,*,#120,.F.);
#159=ORIENTED_EDGE('',*,*,#121,.T.);
#160=ORIENTED_EDGE('',*,*,#122,.T.);
#161=ORIENTED_EDGE('',*,*,#121,.F.);
#162=ORIENTED_EDGE('',*,*,#118,.F.);
#163=ORIENTED_EDGE('',*,*,#123,.T.);
#164=ORIENTED_EDGE('',*,*,#124,.T.);
#165=ORIENTED_EDGE('',*,*,#125,.T.);
#166=ORIENTED_EDGE('',*,*,#123,.F.);
#167=ORIENTED_EDGE('',*,*,#125,.F.);
#168=ORIENTED_EDGE('',*,*,#124,.F.);
#169=ORIENTED_EDGE('',*,*,#122,.F.);
#170=TOROIDAL_SURFACE('',#203,18.,3.);
#171=TOROIDAL_SURFACE('',#211,19.,3.);
#172=TOROIDAL_SURFACE('',#222,19.,3.);
#173=ADVANCED_FACE('',(#43),#170,.F.);
#174=ADVANCED_FACE('',(#44),#42,.T.);
#175=ADVANCED_FACE('',(#45),#25,.T.);
#176=ADVANCED_FACE('',(#46),#171,.T.);
#177=ADVANCED_FACE('',(#47),#26,.T.);
#178=ADVANCED_FACE('',(#48),#27,.F.);
#179=ADVANCED_FACE('',(#49),#19,.F.);
#180=ADVANCED_FACE('',(#50),#20,.T.);
#181=ADVANCED_FACE('',(#51,#17),#21,.F.);
#182=ADVANCED_FACE('',(#52),#172,.T.);
#183=ADVANCED_FACE('',(#53),#28,.T.);
#184=ADVANCED_FACE('',(#54,#18),#22,.T.);
#185=ADVANCED_FACE('',(#55),#29,.F.);
#186=ADVANCED_FACE('',(#56),#23,.F.);
#187=ADVANCED_FACE('',(#57),#24,.F.);
#188=CLOSED_SHELL('',(#173,#174,#175,#176,#177,#178,#179,#180,#181));
#189=CLOSED_SHELL('',(#182,#183,#184,#185,#186,#187));
#190=DERIVED_UNIT_ELEMENT(#192,1.);
#191=DERIVED_UNIT_ELEMENT(#360,-3.);
#192=(
MASS_UNIT()
NAMED_UNIT(*)
SI_UNIT(.KILO.,.GRAM.)
);
#193=DERIVED_UNIT((#190,#191));
#194=MEASURE_REPRESENTATION_ITEM('density measure',
POSITIVE_RATIO_MEASURE(7850.),#193);
#195=PROPERTY_DEFINITION_REPRESENTATION(#200,#197);
#196=PROPERTY_DEFINITION_REPRESENTATION(#201,#198);
#197=REPRESENTATION('material name',(#199),#357);
#198=REPRESENTATION('density',(#194),#357);
#199=DESCRIPTIVE_REPRESENTATION_ITEM('Steel','Steel');
#200=PROPERTY_DEFINITION('material property','material name',#367);
#201=PROPERTY_DEFINITION('material property','density of part',#367);
#202=AXIS2_PLACEMENT_3D('',#304,#234,#235);
#203=AXIS2_PLACEMENT_3D('',#305,#236,#237);
#204=AXIS2_PLACEMENT_3D('',#307,#238,#239);
#205=AXIS2_PLACEMENT_3D('',#309,#240,#241);
#206=AXIS2_PLACEMENT_3D('',#310,#242,#243);
#207=AXIS2_PLACEMENT_3D('',#311,#244,#245);
#208=AXIS2_PLACEMENT_3D('',#314,#247,#248);
#209=AXIS2_PLACEMENT_3D('',#315,#249,#250);
#210=AXIS2_PLACEMENT_3D('',#318,#252,#253);
#211=AXIS2_PLACEMENT_3D('',#319,#254,#255);
#212=AXIS2_PLACEMENT_3D('',#321,#256,#257);
#213=AXIS2_PLACEMENT_3D('',#322,#258,#259);
#214=AXIS2_PLACEMENT_3D('',#323,#260,#261);
#215=AXIS2_PLACEMENT_3D('',#325,#262,#263);
#216=AXIS2_PLACEMENT_3D('',#327,#265,#266);
#217=AXIS2_PLACEMENT_3D('',#329,#267,#268);
#218=AXIS2_PLACEMENT_3D('',#332,#270,#271);
#219=AXIS2_PLACEMENT_3D('',#333,#272,#273);
#220=AXIS2_PLACEMENT_3D('',#334,#274,#275);
#221=AXIS2_PLACEMENT_3D('',#335,#276,#277);
#222=AXIS2_PLACEMENT_3D('',#336,#278,#279);
#223=AXIS2_PLACEMENT_3D('',#338,#280,#281);
#224=AXIS2_PLACEMENT_3D('',#340,#282,#283);
#225=AXIS2_PLACEMENT_3D('',#341,#284,#285);
#226=AXIS2_PLACEMENT_3D('',#342,#286,#287);
#227=AXIS2_PLACEMENT_3D('',#345,#289,#290);
#228=AXIS2_PLACEMENT_3D('',#346,#291,#292);
#229=AXIS2_PLACEMENT_3D('',#348,#293,#294);
#230=AXIS2_PLACEMENT_3D('',#349,#295,#296);
#231=AXIS2_PLACEMENT_3D('',#351,#297,#298);
#232=AXIS2_PLACEMENT_3D('',#353,#300,#301);
#233=AXIS2_PLACEMENT_3D('',#354,#302,#303);
#234=DIRECTION('axis',(0.,0.,1.));
#235=DIRECTION('refdir',(1.,0.,0.));
#236=DIRECTION('center_axis',(0.,0.,1.));
#237=DIRECTION('ref_axis',(1.,0.,0.));
#238=DIRECTION('center_axis',(0.,0.,1.));
#239=DIRECTION('ref_axis',(-1.,-1.22464679914735E-16,0.));
#240=DIRECTION('center_axis',(1.22464679914735E-16,-1.,0.));
#241=DIRECTION('ref_axis',(-1.,-1.22464679914735E-16,0.));
#242=DIRECTION('center_axis',(0.,0.,-1.));
#243=DIRECTION('ref_axis',(-1.,0.,0.));
#244=DIRECTION('center_axis',(0.,0.,1.));
#245=DIRECTION('ref_axis',(1.,0.,0.));
#246=DIRECTION('',(-0.866025403784439,1.06057523872491E-16,0.5));
#247=DIRECTION('center_axis',(0.,0.,1.));
#248=DIRECTION('ref_axis',(1.,-6.12323399573676E-17,0.));
#249=DIRECTION('center_axis',(0.,0.,1.));
#250=DIRECTION('ref_axis',(1.,0.,0.));
#251=DIRECTION('',(0.,0.,-1.));
#252=DIRECTION('center_axis',(0.,0.,1.));
#253=DIRECTION('ref_axis',(1.,0.,0.));
#254=DIRECTION('center_axis',(0.,0.,1.));
#255=DIRECTION('ref_axis',(1.,0.,0.));
#256=DIRECTION('center_axis',(0.,0.,-1.));
#257=DIRECTION('ref_axis',(1.,0.,0.));
#258=DIRECTION('center_axis',(1.22464679914735E-16,-1.,0.));
#259=DIRECTION('ref_axis',(-1.,-1.22464679914735E-16,0.));
#260=DIRECTION('center_axis',(0.,0.,1.));
#261=DIRECTION('ref_axis',(1.,0.,0.));
#262=DIRECTION('center_axis',(0.,0.,1.));
#263=DIRECTION('ref_axis',(1.,0.,0.));
#264=DIRECTION('',(0.,0.,-1.));
#265=DIRECTION('center_axis',(0.,0.,-1.));
#266=DIRECTION('ref_axis',(-1.,0.,0.));
#267=DIRECTION('center_axis',(0.,0.,1.));
#268=DIRECTION('ref_axis',(-1.,0.,0.));
#269=DIRECTION('',(0.,0.,-1.));
#270=DIRECTION('center_axis',(0.,0.,1.));
#271=DIRECTION('ref_axis',(-1.,0.,0.));
#272=DIRECTION('center_axis',(0.,0.,1.));
#273=DIRECTION('ref_axis',(-1.,0.,0.));
#274=DIRECTION('center_axis',(0.,0.,1.));
#275=DIRECTION('ref_axis',(1.,0.,0.));
#276=DIRECTION('center_axis',(0.,0.,1.));
#277=DIRECTION('ref_axis',(1.,0.,0.));
#278=DIRECTION('center_axis',(0.,0.,1.));
#279=DIRECTION('ref_axis',(1.,0.,0.));
#280=DIRECTION('center_axis',(0.,0.,-1.));
#281=DIRECTION('ref_axis',(1.,0.,0.));
#282=DIRECTION('center_axis',(0.,-1.,0.));
#283=DIRECTION('ref_axis',(-1.,0.,0.));
#284=DIRECTION('center_axis',(0.,0.,1.));
#285=DIRECTION('ref_axis',(1.,0.,0.));
#286=DIRECTION('center_axis',(0.,0.,1.));
#287=DIRECTION('ref_axis',(1.,0.,0.));
#288=DIRECTION('',(0.,0.,-1.));
#289=DIRECTION('center_axis',(0.,0.,1.));
#290=DIRECTION('ref_axis',(1.,0.,0.));
#291=DIRECTION('center_axis',(0.,0.,1.));
#292=DIRECTION('ref_axis',(1.,0.,0.));
#293=DIRECTION('center_axis',(0.,0.,-1.));
#294=DIRECTION('ref_axis',(1.,0.,0.));
#295=DIRECTION('center_axis',(0.,0.,1.));
#296=DIRECTION('ref_axis',(1.,0.,0.));
#297=DIRECTION('center_axis',(0.,0.,-1.));
#298=DIRECTION('ref_axis',(1.,0.,0.));
#299=DIRECTION('',(0.,0.,1.));
#300=DIRECTION('center_axis',(0.,0.,-1.));
#301=DIRECTION('ref_axis',(1.,0.,0.));
#302=DIRECTION('center_axis',(0.,0.,1.));
#303=DIRECTION('ref_axis',(1.,0.,0.));
#304=CARTESIAN_POINT('',(0.,0.,0.));
#305=CARTESIAN_POINT('Origin',(0.,0.,28.2679491924311));
#306=CARTESIAN_POINT('',(-15.,-1.83697019872103E-15,28.2679491924311));
#307=CARTESIAN_POINT('Origin',(0.,0.,28.2679491924311));
#308=CARTESIAN_POINT('',(-16.5,-2.02066721859313E-15,30.8660254037844));
#309=CARTESIAN_POINT('Origin',(-18.,-2.20436423846524E-15,28.2679491924311));
#310=CARTESIAN_POINT('Origin',(0.,2.02066721859313E-15,30.8660254037844));
#311=CARTESIAN_POINT('Origin',(0.,0.,34.0414518843274));
#312=CARTESIAN_POINT('',(-20.5,0.,33.1754264805429));
#313=CARTESIAN_POINT('',(-22.,2.69422295812418E-15,34.0414518843274));
#314=CARTESIAN_POINT('Origin',(0.,1.25526296912604E-15,33.1754264805429));
#315=CARTESIAN_POINT('Origin',(0.,0.,0.));
#316=CARTESIAN_POINT('',(-15.,-1.83697019872103E-15,0.));
#317=CARTESIAN_POINT('',(-15.,-1.83697019872103E-15,0.));
#318=CARTESIAN_POINT('Origin',(0.,0.,0.));
#319=CARTESIAN_POINT('Origin',(0.,0.,35.7735026918963));
#320=CARTESIAN_POINT('',(-22.,2.69422295812418E-15,35.7735026918963));
#321=CARTESIAN_POINT('Origin',(0.,0.,35.7735026918963));
#322=CARTESIAN_POINT('Origin',(-19.,-2.32682891837997E-15,35.7735026918963));
#323=CARTESIAN_POINT('Origin',(0.,0.,34.0414518843274));
#324=CARTESIAN_POINT('',(-22.,-2.69422295812418E-15,39.0414518843274));
#325=CARTESIAN_POINT('Origin',(0.,0.,39.0414518843274));
#326=CARTESIAN_POINT('',(-22.,-2.69422295812418E-15,34.0414518843274));
#327=CARTESIAN_POINT('Origin',(0.,0.,38.0414518843274));
#328=CARTESIAN_POINT('',(12.775,1.56448628591074E-15,38.0414518843274));
#329=CARTESIAN_POINT('Origin',(0.,0.,38.0414518843274));
#330=CARTESIAN_POINT('',(12.775,1.56448628591074E-15,0.));
#331=CARTESIAN_POINT('',(12.775,-1.56448628591074E-15,38.0414518843274));
#332=CARTESIAN_POINT('Origin',(0.,0.,0.));
#333=CARTESIAN_POINT('Origin',(0.,0.,38.0414518843274));
#334=CARTESIAN_POINT('Origin',(0.,0.,39.0414518843274));
#335=CARTESIAN_POINT('Origin',(0.,0.,0.));
#336=CARTESIAN_POINT('Origin',(0.,50.0000007450581,2.));
#337=CARTESIAN_POINT('',(-19.,50.0000007450581,5.));
#338=CARTESIAN_POINT('Origin',(0.,50.0000007450581,5.));
#339=CARTESIAN_POINT('',(-22.,50.0000007450581,2.));
#340=CARTESIAN_POINT('Origin',(-19.,50.0000007450581,2.));
#341=CARTESIAN_POINT('Origin',(0.,50.0000007450581,2.));
#342=CARTESIAN_POINT('Origin',(0.,50.0000007450581,0.));
#343=CARTESIAN_POINT('',(-22.,50.0000007450581,0.));
#344=CARTESIAN_POINT('',(-22.,50.0000007450581,0.));
#345=CARTESIAN_POINT('Origin',(0.,50.0000007450581,0.));
#346=CARTESIAN_POINT('Origin',(0.,50.0000007450581,5.));
#347=CARTESIAN_POINT('',(-12.775,50.,5.));
#348=CARTESIAN_POINT('Origin',(0.,50.,5.));
#349=CARTESIAN_POINT('Origin',(0.,50.,1.));
#350=CARTESIAN_POINT('',(-12.775,50.,1.));
#351=CARTESIAN_POINT('Origin',(0.,50.,1.));
#352=CARTESIAN_POINT('',(-12.775,50.,1.));
#353=CARTESIAN_POINT('Origin',(0.,50.,1.));
#354=CARTESIAN_POINT('Origin',(0.,50.0000007450581,0.));
#355=UNCERTAINTY_MEASURE_WITH_UNIT(LENGTH_MEASURE(0.01),#359,
'DISTANCE_ACCURACY_VALUE',
'Maximum model space distance between geometric entities at asserted c
onnectivities');
#356=UNCERTAINTY_MEASURE_WITH_UNIT(LENGTH_MEASURE(0.01),#359,
'DISTANCE_ACCURACY_VALUE',
'Maximum model space distance between geometric entities at asserted c
onnectivities');
#357=(
GEOMETRIC_REPRESENTATION_CONTEXT(3)
GLOBAL_UNCERTAINTY_ASSIGNED_CONTEXT((#355))
GLOBAL_UNIT_ASSIGNED_CONTEXT((#359,#361,#362))
REPRESENTATION_CONTEXT('','3D')
);
#358=(
GEOMETRIC_REPRESENTATION_CONTEXT(3)
GLOBAL_UNCERTAINTY_ASSIGNED_CONTEXT((#356))
GLOBAL_UNIT_ASSIGNED_CONTEXT((#359,#361,#362))
REPRESENTATION_CONTEXT('','3D')
);
#359=(
LENGTH_UNIT()
NAMED_UNIT(*)
SI_UNIT(.MILLI.,.METRE.)
);
#360=(
LENGTH_UNIT()
NAMED_UNIT(*)
SI_UNIT($,.METRE.)
);
#361=(
NAMED_UNIT(*)
PLANE_ANGLE_UNIT()
SI_UNIT($,.RADIAN.)
);
#362=(
NAMED_UNIT(*)
SI_UNIT($,.STERADIAN.)
SOLID_ANGLE_UNIT()
);
#363=SHAPE_DEFINITION_REPRESENTATION(#364,#365);
#364=PRODUCT_DEFINITION_SHAPE('',$,#367);
#365=SHAPE_REPRESENTATION('',(#202),#357);
#366=PRODUCT_DEFINITION_CONTEXT('part definition',#371,'design');
#367=PRODUCT_DEFINITION('Rotary Engrave Coin Holder Parameterized',
'Rotary Engrave Coin Holder Parameterized v5',#368,#366);
#368=PRODUCT_DEFINITION_FORMATION('',$,#373);
#369=PRODUCT_RELATED_PRODUCT_CATEGORY(
'Rotary Engrave Coin Holder Parameterized v5',
'Rotary Engrave Coin Holder Parameterized v5',(#373));
#370=APPLICATION_PROTOCOL_DEFINITION('international standard',
'automotive_design',2009,#371);
#371=APPLICATION_CONTEXT(
'Core Data for Automotive Mechanical Design Process');
#372=PRODUCT_CONTEXT('part definition',#371,'mechanical');
#373=PRODUCT('Rotary Engrave Coin Holder Parameterized',
'Rotary Engrave Coin Holder Parameterized v5',$,(#372));
#374=PRESENTATION_STYLE_ASSIGNMENT((#375));
#375=SURFACE_STYLE_USAGE(.BOTH.,#376);
#376=SURFACE_SIDE_STYLE('',(#377));
#377=SURFACE_STYLE_FILL_AREA(#378);
#378=FILL_AREA_STYLE('Steel - Satin',(#379));
#379=FILL_AREA_STYLE_COLOUR('Steel - Satin',#380);
#380=COLOUR_RGB('Steel - Satin',0.627450980392157,0.627450980392157,0.627450980392157);
ENDSEC;
END-ISO-10303-21;
